<svg version="1.1" id="Layer_1" xmlns="http://www.w3.org/2000/svg" xmlns:xlink="http://www.w3.org/1999/xlink" x="0px" y="0px"
	 width="100%" viewBox="0 0 354 321" enable-background="new 0 0 354 321" xml:space="preserve">
<path fill="#FDFDFD" opacity="1.000000" stroke="none" 
	d="
M210.000000,322.000000 
	C140.000000,322.000000 70.500000,322.000000 1.000000,322.000000 
	C1.000000,215.000000 1.000000,108.000000 1.000000,1.000000 
	C119.000000,1.000000 237.000000,1.000000 355.000000,1.000000 
	C355.000000,108.000000 355.000000,215.000000 355.000000,322.000000 
	C306.833344,322.000000 258.666656,322.000000 210.000000,322.000000 
M48.356846,75.747795 
	C48.902481,82.164833 49.448116,88.581871 49.275276,95.074738 
	C48.118092,95.413963 46.960907,95.753189 45.306084,95.636757 
	C44.997490,95.048904 44.699520,94.455177 44.378628,93.874115 
	C41.729801,89.077682 38.157207,87.273003 34.428711,88.842400 
	C29.829737,90.778191 28.646547,93.658508 29.986460,99.288307 
	C30.824995,102.811516 31.513451,106.370453 31.667786,110.211052 
	C31.401567,110.563515 31.135349,110.915977 30.288940,110.752357 
	C29.551212,107.957901 28.813484,105.163445 28.075758,102.368996 
	C27.566929,102.352158 27.058102,102.335327 26.549273,102.318489 
	C26.090984,105.081078 25.253464,107.841217 25.235641,110.606636 
	C25.115425,129.260376 25.163250,147.915253 25.167473,166.569748 
	C25.173422,192.857101 43.927555,216.151749 73.889687,215.745361 
	C78.092972,215.688370 79.710228,217.011627 79.099106,221.122574 
	C78.880577,222.592606 78.694321,224.091370 78.729698,225.571381 
	C79.001907,236.959061 79.331238,248.345398 79.661095,259.731598 
	C79.663994,259.831848 79.916214,259.924896 80.702171,260.482758 
	C82.526764,259.090851 84.736908,257.719696 86.569214,255.955994 
	C98.553032,244.420898 110.414574,232.758469 122.442535,221.270020 
	C123.734558,220.035965 125.837059,218.979904 127.566994,218.974716 
	C157.043930,218.886124 186.521423,218.976608 216.070984,219.710403 
	C216.714249,221.143661 217.357513,222.576920 217.160507,224.135056 
	C214.739990,224.487152 212.320343,225.138290 209.898819,225.145340 
	C183.913101,225.220947 157.927017,225.225494 131.941269,225.154892 
	C128.956299,225.146774 126.753029,225.563705 124.836212,228.377686 
	C122.843163,231.303589 119.930252,233.639771 117.263718,236.062286 
	C111.865486,240.966446 106.083565,245.486328 101.036835,250.720932 
	C98.976929,252.857513 97.421089,256.412750 97.342285,259.368073 
	C96.965012,273.516998 97.146683,287.681671 97.207207,301.840393 
	C97.214203,303.478363 97.702629,305.114288 98.131950,307.763916 
	C100.127007,306.083588 101.280869,305.228821 102.299988,304.235779 
	C116.959213,289.951416 131.492767,275.535339 146.319626,261.427490 
	C150.136322,257.795868 153.201263,253.495834 160.155121,253.582962 
	C198.961365,254.069229 237.776978,253.856796 276.589050,253.756866 
	C280.698090,253.746277 284.877167,253.254684 288.901001,252.404968 
	C311.204773,247.694962 324.708496,228.510986 324.750275,206.998230 
	C324.802277,180.216278 324.321533,153.433456 324.103119,126.650749 
	C323.995056,113.399887 324.669525,100.095825 323.693146,86.911880 
	C322.694489,73.427200 315.177826,63.307976 304.135773,55.507336 
	C292.515350,47.298119 279.390228,48.111023 266.296661,48.160210 
	C263.029755,48.172482 262.967865,50.180840 263.458588,52.582558 
	C264.017395,55.317490 264.562775,58.055164 264.770691,61.463188 
	C263.194641,61.974411 261.618561,62.485638 259.694183,62.313408 
	C259.413666,60.563705 259.133118,58.814003 259.347992,56.744377 
	C258.909851,56.162384 258.471680,55.580395 257.703583,54.362900 
	C257.055847,52.843349 256.380585,51.334858 255.764511,49.802567 
	C248.595566,31.971926 232.213821,20.518724 213.946640,20.319120 
	C168.318161,19.820541 122.675720,19.774738 77.049072,20.352291 
	C59.297485,20.576994 44.305023,31.196096 37.137470,47.882664 
	C32.305683,59.131416 34.745388,70.819771 34.270828,82.332153 
	C34.233154,83.246071 35.537712,84.615700 36.542591,85.097336 
	C39.586891,86.556427 42.790627,87.682861 46.827812,89.296974 
	C46.549641,84.320557 46.289265,79.662506 46.686325,74.999626 
	C47.124767,74.999504 47.563210,74.999382 48.356846,75.747795 
z"/>
<path fill="#FB6B78" opacity="1.000000" stroke="none" 
	d="
M215.998779,219.027618 
	C186.521423,218.976608 157.043930,218.886124 127.566994,218.974716 
	C125.837059,218.979904 123.734558,220.035965 122.442535,221.270020 
	C110.414574,232.758469 98.553032,244.420898 86.569214,255.955994 
	C84.736908,257.719696 82.526764,259.090851 80.702171,260.482758 
	C79.916214,259.924896 79.663994,259.831848 79.661095,259.731598 
	C79.331238,248.345398 79.001907,236.959061 78.729698,225.571381 
	C78.694321,224.091370 78.880577,222.592606 79.099106,221.122574 
	C79.710228,217.011627 78.092972,215.688370 73.889687,215.745361 
	C43.927555,216.151749 25.173422,192.857101 25.167473,166.569748 
	C25.163250,147.915253 25.115425,129.260376 25.235641,110.606636 
	C25.253464,107.841217 26.090984,105.081078 26.549273,102.318489 
	C27.058102,102.335327 27.566929,102.352158 28.075758,102.368996 
	C28.813484,105.163445 29.551212,107.957901 30.559013,111.398788 
	C31.024479,113.009094 31.171198,113.985855 31.422503,114.934929 
	C35.763134,131.327713 40.488434,147.594025 41.993916,164.640991 
	C43.499645,181.690720 52.123264,193.689209 69.399338,199.026520 
	C83.562759,202.711136 103.445290,199.834869 113.403961,184.015594 
	C116.252235,179.216904 118.765472,174.593185 121.402206,170.041000 
	C127.939499,158.754715 134.533249,147.501129 141.361237,135.993851 
	C142.662445,134.313950 143.795166,132.929749 144.733963,131.424622 
	C147.245865,127.397423 148.137497,123.186073 145.327881,118.949432 
	C142.294556,114.375435 136.376328,112.416641 130.894608,114.534065 
	C126.643539,116.176132 122.477699,118.342010 122.453705,124.240616 
	C121.484230,125.865021 120.734749,127.286705 119.680206,128.888306 
	C118.598007,129.927673 117.882668,130.854980 117.030075,131.631592 
	C115.538338,132.990341 113.027893,135.628769 112.582397,135.325409 
	C110.590210,133.968842 108.814110,131.953140 107.680038,129.796753 
	C106.906731,128.326309 107.234009,126.231079 107.220528,124.414093 
	C107.073631,104.618637 106.956635,84.822968 106.769440,64.666878 
	C105.801849,59.823959 104.431618,55.725742 98.624496,54.933357 
	C95.055740,55.164577 91.862854,55.447754 87.734619,55.813885 
	C85.139465,49.917439 80.956673,44.280460 71.588852,47.863121 
	C67.912086,49.927708 65.864777,52.600590 65.798393,56.733200 
	C65.706291,62.466263 65.433060,62.559494 60.207134,60.566395 
	C54.388630,58.347290 49.451580,60.072765 47.184502,65.841751 
	C46.093292,68.618538 46.371052,71.933304 46.028893,75.004448 
	C46.289265,79.662506 46.549641,84.320557 46.827812,89.296974 
	C42.790627,87.682861 39.586891,86.556427 36.542591,85.097336 
	C35.537712,84.615700 34.233154,83.246071 34.270828,82.332153 
	C34.745388,70.819771 32.305683,59.131416 37.137470,47.882664 
	C44.305023,31.196096 59.297485,20.576994 77.049072,20.352291 
	C122.675720,19.774738 168.318161,19.820541 213.946640,20.319120 
	C232.213821,20.518724 248.595566,31.971926 255.764511,49.802567 
	C256.380585,51.334858 257.055847,52.843349 257.828247,54.978065 
	C258.252808,56.083591 258.552704,56.573944 258.852600,57.064301 
	C259.133118,58.814003 259.413666,60.563705 259.796478,63.119659 
	C259.953949,84.617790 260.009094,105.309669 259.992737,126.465553 
	C259.964417,137.621292 260.007599,148.313034 259.981018,159.468231 
	C259.564514,167.219177 259.217712,174.506699 258.601685,182.038055 
	C256.519196,186.787048 254.705948,191.292206 252.618988,195.999481 
	C246.621017,204.084137 239.471970,210.363312 230.649750,215.233643 
	C225.527222,216.545486 220.763000,217.786560 215.998779,219.027618 
M166.897659,162.420578 
	C182.803085,153.203552 198.777130,144.100967 214.540253,134.646667 
	C216.916275,133.221603 219.414307,130.316772 219.782303,127.793976 
	C220.046005,125.986153 217.167969,123.258141 215.119461,121.686356 
	C212.254639,119.488205 208.844940,118.005417 205.689636,116.179779 
	C191.353058,107.884735 177.112686,99.417915 162.653885,91.341995 
	C155.655914,87.433311 152.007355,89.853760 151.916855,97.941193 
	C151.814484,107.090721 151.857895,116.241989 151.854965,125.392502 
	C151.851349,136.705872 151.657745,148.026260 152.039856,159.326920 
	C152.120087,161.699905 153.860031,164.623322 155.761230,166.104324 
	C156.931580,167.015991 159.924133,165.893066 161.973663,165.271790 
	C163.516937,164.803955 164.861908,163.681976 166.897659,162.420578 
z"/>
<path fill="#45B4F3" opacity="1.000000" stroke="none" 
	d="
M265.114014,60.791641 
	C264.562775,58.055164 264.017395,55.317490 263.458588,52.582558 
	C262.967865,50.180840 263.029755,48.172482 266.296661,48.160210 
	C279.390228,48.111023 292.515350,47.298119 304.135773,55.507336 
	C315.177826,63.307976 322.694489,73.427200 323.693146,86.911880 
	C324.669525,100.095825 323.995056,113.399887 324.103119,126.650749 
	C324.321533,153.433456 324.802277,180.216278 324.750275,206.998230 
	C324.708496,228.510986 311.204773,247.694962 288.901001,252.404968 
	C284.877167,253.254684 280.698090,253.746277 276.589050,253.756866 
	C237.776978,253.856796 198.961365,254.069229 160.155121,253.582962 
	C153.201263,253.495834 150.136322,257.795868 146.319626,261.427490 
	C131.492767,275.535339 116.959213,289.951416 102.299988,304.235779 
	C101.280869,305.228821 100.127007,306.083588 98.131950,307.763916 
	C97.702629,305.114288 97.214203,303.478363 97.207207,301.840393 
	C97.146683,287.681671 96.965012,273.516998 97.342285,259.368073 
	C97.421089,256.412750 98.976929,252.857513 101.036835,250.720932 
	C106.083565,245.486328 111.865486,240.966446 117.263718,236.062286 
	C119.930252,233.639771 122.843163,231.303589 124.836212,228.377686 
	C126.753029,225.563705 128.956299,225.146774 131.941269,225.154892 
	C157.927017,225.225494 183.913101,225.220947 209.898819,225.145340 
	C212.320343,225.138290 214.739990,224.487152 217.987015,224.143646 
	C222.232315,223.171127 225.651108,222.189987 229.447083,221.192139 
	C240.792664,216.947495 250.431213,211.052734 256.396240,199.998779 
	C259.074158,194.527527 261.470337,189.257950 264.006531,183.614426 
	C264.767029,176.160141 265.387451,169.079773 266.082428,161.535553 
	C266.109558,153.048141 266.062164,145.024597 266.085754,136.536591 
	C266.152252,112.706940 266.169464,89.341644 266.098907,65.976631 
	C266.093658,64.247322 265.457092,62.519924 265.114014,60.791641 
z"/>
<path fill="#FCB368" opacity="1.000000" stroke="none" 
	d="
M119.985275,128.708389 
	C120.734749,127.286705 121.484230,125.865021 122.809814,124.157501 
	C124.777328,122.257179 126.004654,120.455048 127.593193,119.066017 
	C131.266159,115.854401 137.652496,115.728104 141.176590,118.832581 
	C144.989746,122.191681 144.281174,126.035179 142.001373,129.988678 
	C141.109070,131.536057 140.539490,133.269547 139.566650,135.139526 
	C136.229263,140.438934 133.094482,145.485443 130.078217,150.601822 
	C123.720329,161.386536 117.424507,172.207840 110.899673,183.282684 
	C104.370796,190.915710 96.808083,196.430420 86.915665,197.319153 
	C81.408356,197.813919 75.787910,197.049408 69.966087,196.594467 
	C63.163845,194.063736 57.763653,190.328751 53.008545,185.133286 
	C44.948952,176.327301 45.115036,165.243439 42.965446,154.602203 
	C39.934505,139.597961 35.883904,124.799690 32.269253,109.913353 
	C31.513451,106.370453 30.824995,102.811516 29.986460,99.288307 
	C28.646547,93.658508 29.829737,90.778191 34.428711,88.842400 
	C38.157207,87.273003 41.729801,89.077682 44.378628,93.874115 
	C44.699520,94.455177 44.997490,95.048904 45.574402,96.251236 
	C47.696262,102.624275 49.549805,108.382835 51.403343,114.141396 
	C51.771397,114.065231 52.139450,113.989067 52.507500,113.912895 
	C51.669586,107.608238 50.831669,101.303574 49.993752,94.998909 
	C49.448116,88.581871 48.902481,82.164833 48.237766,74.949486 
	C48.099110,70.503464 47.719666,66.746597 51.422112,64.338341 
	C57.653481,60.285137 64.085823,64.555305 64.899536,72.903343 
	C65.788849,82.026787 67.155067,91.103745 68.313423,100.200958 
	C69.122231,98.585350 69.159264,96.998962 69.116302,95.414742 
	C68.797791,83.670883 68.484756,71.926804 68.122757,60.184246 
	C67.990227,55.885410 69.494957,52.471668 73.575623,50.109985 
	C81.383545,50.091293 82.789818,51.058300 84.077301,58.300747 
	C84.758896,62.134926 84.738533,66.093887 84.980438,70.444138 
	C85.521866,82.638199 86.117928,94.384659 86.713989,106.131111 
	C87.131828,106.113396 87.549660,106.095673 87.967499,106.077957 
	C87.967499,94.050583 87.967499,82.023209 88.020653,69.572479 
	C88.278526,59.968105 90.860489,57.129501 99.177887,57.430122 
	C101.218323,60.509277 103.050430,63.328686 104.879227,66.574364 
	C104.876060,79.831116 104.882767,92.661598 104.873940,105.492073 
	C104.868446,113.481087 104.802032,121.470230 104.833290,129.459045 
	C104.856735,135.448700 108.328629,139.356018 113.216621,139.045898 
	C116.701866,138.824799 120.155266,133.550552 119.985275,128.708389 
z"/>
<path fill="#FBFBF7" opacity="1.000000" stroke="none" 
	d="
M264.942352,61.127415 
	C265.457092,62.519924 266.093658,64.247322 266.098907,65.976631 
	C266.169464,89.341644 266.152252,112.706940 265.715149,136.492264 
	C264.182495,134.728729 263.067993,132.556381 262.008759,130.357391 
	C261.318970,128.925491 260.709625,127.454849 260.064270,126.001549 
	C260.009094,105.309669 259.953949,84.617790 259.970642,63.461384 
	C261.618561,62.485638 263.194641,61.974411 264.942352,61.127415 
z"/>
<path fill="#F7F3F0" opacity="1.000000" stroke="none" 
	d="
M31.968519,110.062202 
	C35.883904,124.799690 39.934505,139.597961 42.965446,154.602203 
	C45.115036,165.243439 44.948952,176.327301 53.008545,185.133286 
	C57.763653,190.328751 63.163845,194.063736 69.696960,196.762054 
	C69.456108,197.754333 69.232033,198.321091 69.007965,198.887848 
	C52.123264,193.689209 43.499645,181.690720 41.993916,164.640991 
	C40.488434,147.594025 35.763134,131.327713 31.422503,114.934929 
	C31.171198,113.985855 31.024479,113.009094 30.849110,111.656830 
	C31.135349,110.915977 31.401567,110.563515 31.968519,110.062202 
z"/>
<path fill="#F8F6ED" opacity="1.000000" stroke="none" 
	d="
M73.163864,50.107258 
	C69.494957,52.471668 67.990227,55.885410 68.122757,60.184246 
	C68.484756,71.926804 68.797791,83.670883 69.116302,95.414742 
	C69.159264,96.998962 69.122231,98.585350 68.313423,100.200958 
	C67.155067,91.103745 65.788849,82.026787 64.899536,72.903343 
	C64.085823,64.555305 57.653481,60.285137 51.422112,64.338341 
	C47.719666,66.746597 48.099110,70.503464 48.060169,74.575226 
	C47.563210,74.999382 47.124767,74.999504 46.357609,75.002037 
	C46.371052,71.933304 46.093292,68.618538 47.184502,65.841751 
	C49.451580,60.072765 54.388630,58.347290 60.207134,60.566395 
	C65.433060,62.559494 65.706291,62.466263 65.798393,56.733200 
	C65.864777,52.600590 67.912086,49.927708 71.629326,48.207108 
	C72.402832,49.027378 72.783348,49.567318 73.163864,50.107258 
z"/>
<path fill="#F5F8F8" opacity="1.000000" stroke="none" 
	d="
M229.069916,221.208862 
	C225.651108,222.189987 222.232315,223.171127 218.407135,224.081207 
	C217.357513,222.576920 216.714249,221.143661 216.034882,219.369019 
	C220.763000,217.786560 225.527222,216.545486 230.641479,215.592865 
	C230.350998,217.657166 229.710449,219.433014 229.069916,221.208862 
z"/>
<path fill="#FBF6EB" opacity="1.000000" stroke="none" 
	d="
M49.634514,95.036819 
	C50.831669,101.303574 51.669586,107.608238 52.507500,113.912895 
	C52.139450,113.989067 51.771397,114.065231 51.403343,114.141396 
	C49.549805,108.382835 47.696262,102.624275 45.823223,96.479065 
	C46.960907,95.753189 48.118092,95.413963 49.634514,95.036819 
z"/>
<path fill="#FBFBF7" opacity="1.000000" stroke="none" 
	d="
M259.100281,56.904339 
	C258.552704,56.573944 258.252808,56.083591 257.993225,55.295822 
	C258.471680,55.580395 258.909851,56.162384 259.100281,56.904339 
z"/>
<path fill="#FDFDFC" opacity="1.000000" stroke="none" 
	d="
M166.596405,162.635880 
	C164.861908,163.681976 163.516937,164.803955 161.973663,165.271790 
	C159.924133,165.893066 156.931580,167.015991 155.761230,166.104324 
	C153.860031,164.623322 152.120087,161.699905 152.039856,159.326920 
	C151.657745,148.026260 151.851349,136.705872 151.854965,125.392502 
	C151.857895,116.241989 151.814484,107.090721 151.916855,97.941193 
	C152.007355,89.853760 155.655914,87.433311 162.653885,91.341995 
	C177.112686,99.417915 191.353058,107.884735 205.689636,116.179779 
	C208.844940,118.005417 212.254639,119.488205 215.119461,121.686356 
	C217.167969,123.258141 220.046005,125.986153 219.782303,127.793976 
	C219.414307,130.316772 216.916275,133.221603 214.540253,134.646667 
	C198.777130,144.100967 182.803085,153.203552 166.596405,162.635880 
z"/>
<path fill="#F8F9F8" opacity="1.000000" stroke="none" 
	d="
M119.680214,128.888306 
	C120.155266,133.550552 116.701866,138.824799 113.216621,139.045898 
	C108.328629,139.356018 104.856735,135.448700 104.833290,129.459045 
	C104.802032,121.470230 104.868446,113.481087 104.873940,105.492073 
	C104.882767,92.661598 104.876060,79.831116 105.043365,66.322021 
	C105.751030,65.438065 106.291267,65.232712 106.831497,65.027351 
	C106.956635,84.822968 107.073631,104.618637 107.220528,124.414093 
	C107.234009,126.231079 106.906731,128.326309 107.680038,129.796753 
	C108.814110,131.953140 110.590210,133.968842 112.582397,135.325409 
	C113.027893,135.628769 115.538338,132.990341 117.030075,131.631592 
	C117.882668,130.854980 118.598007,129.927673 119.680214,128.888306 
z"/>
<path fill="#FAFAFB" opacity="1.000000" stroke="none" 
	d="
M229.447083,221.192139 
	C229.710449,219.433014 230.350998,217.657166 230.999802,215.522095 
	C239.471970,210.363312 246.621017,204.084137 252.763840,196.311951 
	C254.159790,197.681686 255.137161,198.941055 256.114532,200.200439 
	C250.431213,211.052734 240.792664,216.947495 229.447083,221.192139 
z"/>
<path fill="#F9F9F6" opacity="1.000000" stroke="none" 
	d="
M259.992737,126.465553 
	C260.709625,127.454849 261.318970,128.925491 262.008759,130.357391 
	C263.067993,132.556381 264.182495,134.728729 265.644165,136.956696 
	C266.062164,145.024597 266.109558,153.048141 265.738617,161.501968 
	C263.563782,160.956421 261.807251,159.980606 260.050751,159.004776 
	C260.007599,148.313034 259.964417,137.621292 259.992737,126.465553 
z"/>
<path fill="#F8F0EE" opacity="1.000000" stroke="none" 
	d="
M111.103218,183.014130 
	C117.424507,172.207840 123.720329,161.386536 130.078217,150.601822 
	C133.094482,145.485443 136.229263,140.438934 139.844925,135.289642 
	C140.621109,135.557144 140.862701,135.895782 141.104309,136.234406 
	C134.533249,147.501129 127.939499,158.754715 121.402206,170.041000 
	C118.765472,174.593185 116.252235,179.216904 113.241562,183.744400 
	C112.234619,183.458542 111.668922,183.236328 111.103218,183.014130 
z"/>
<path fill="#FDFDFD" opacity="1.000000" stroke="none" 
	d="
M259.981018,159.468231 
	C261.807251,159.980606 263.563782,160.956421 265.664093,161.965820 
	C265.387451,169.079773 264.767029,176.160141 263.650208,183.611282 
	C261.726196,183.252792 260.298553,182.523499 258.870911,181.794205 
	C259.217712,174.506699 259.564514,167.219177 259.981018,159.468231 
z"/>
<path fill="#FAF8F3" opacity="1.000000" stroke="none" 
	d="
M73.575623,50.109985 
	C72.783348,49.567318 72.402832,49.027378 71.981842,48.143456 
	C80.956673,44.280460 85.139465,49.917439 87.734619,55.813885 
	C91.862854,55.447754 95.055740,55.164577 98.623657,55.297211 
	C98.988983,56.198807 98.979271,56.684589 98.969559,57.170376 
	C90.860489,57.129501 88.278526,59.968105 87.654198,69.573975 
	C86.501419,69.998047 85.768242,69.997284 85.035072,69.996521 
	C84.738533,66.093887 84.758896,62.134926 84.077301,58.300747 
	C82.789818,51.058300 81.383545,50.091293 73.575623,50.109985 
z"/>
<path fill="#FCF7F7" opacity="1.000000" stroke="none" 
	d="
M110.899673,183.282684 
	C111.668922,183.236328 112.234619,183.458542 112.962715,183.951935 
	C103.445290,199.834869 83.562759,202.711136 69.399338,199.026520 
	C69.232033,198.321091 69.456108,197.754333 69.949326,197.019989 
	C75.787910,197.049408 81.408356,197.813919 86.915665,197.319153 
	C96.808083,196.430420 104.370796,190.915710 110.899673,183.282684 
z"/>
<path fill="#FBF8F7" opacity="1.000000" stroke="none" 
	d="
M141.361237,135.993851 
	C140.862701,135.895782 140.621109,135.557144 140.101227,135.068390 
	C140.539490,133.269547 141.109070,131.536057 142.001373,129.988678 
	C144.281174,126.035179 144.989746,122.191681 141.176590,118.832581 
	C137.652496,115.728104 131.266159,115.854401 127.593193,119.066017 
	C126.004654,120.455048 124.777328,122.257179 123.029816,123.954781 
	C122.477699,118.342010 126.643539,116.176132 130.894608,114.534065 
	C136.376328,112.416641 142.294556,114.375435 145.327881,118.949432 
	C148.137497,123.186073 147.245865,127.397423 144.733963,131.424622 
	C143.795166,132.929749 142.662445,134.313950 141.361237,135.993851 
z"/>
<path fill="#F3F7F7" opacity="1.000000" stroke="none" 
	d="
M258.601685,182.038055 
	C260.298553,182.523499 261.726196,183.252792 263.510193,183.985214 
	C261.470337,189.257950 259.074158,194.527527 256.396240,199.998779 
	C255.137161,198.941055 254.159790,197.681686 253.037567,196.109833 
	C254.705948,191.292206 256.519196,186.787048 258.601685,182.038055 
z"/>
<path fill="#F7F0E5" opacity="1.000000" stroke="none" 
	d="
M99.177887,57.430122 
	C98.979271,56.684589 98.988983,56.198807 98.999527,55.349167 
	C104.431618,55.725742 105.801849,59.823959 106.769440,64.666878 
	C106.291267,65.232712 105.751030,65.438065 105.046669,65.895752 
	C103.050430,63.328686 101.218323,60.509277 99.177887,57.430122 
z"/>
<path fill="#F2F4ED" opacity="1.000000" stroke="none" 
	d="
M84.980438,70.444138 
	C85.768242,69.997284 86.501419,69.998047 87.601044,69.997330 
	C87.967499,82.023209 87.967499,94.050583 87.967499,106.077957 
	C87.549660,106.095673 87.131828,106.113396 86.713989,106.131111 
	C86.117928,94.384659 85.521866,82.638199 84.980438,70.444138 
z"/>
</svg>