<svg xmlns="http://www.w3.org/2000/svg" viewBox="0 0 48 48"><defs><style>.cls-1{fill:#6fabe6;}.cls-2{fill:#82bcf4;}.cls-3{fill:#fc6;}.cls-4{fill:#9dcc6b;}.cls-5{fill:#db5669;}.cls-6{fill:#ffde76;}.cls-7{fill:#b5e08c;}.cls-8{fill:#f26674;}</style></defs><title>Puzzle</title><g id="Puzzle"><path class="cls-1" d="M38,38a3,3,0,0,1-2-.77V40a2,2,0,0,1-2,2H22V37.23A3,3,0,0,0,24,38a3,3,0,0,0,1-5.83l-.35-.1a3,3,0,0,0-2.65.7V28h4.77A3,3,0,1,1,32,26a3,3,0,0,1-.77,2H36v4.77A3,3,0,1,1,38,38Z"/><path class="cls-2" d="M38,38a3,3,0,0,1-2-.77V40h0A11,11,0,0,1,25,29V28h1.77A3,3,0,1,1,32,26a3,3,0,0,1-.77,2H36v4.77A3,3,0,1,1,38,38Z"/><path class="cls-3" d="M17.05,21.57A3,3,0,0,0,22,23.23V28H17.23A3,3,0,1,1,12,30a3,3,0,0,1,.77-2H8V23.23A3,3,0,1,1,6,18a3,3,0,0,1,2,.77V16a2,2,0,0,1,2-2H22v4.77A3,3,0,0,0,20,18,3,3,0,0,0,17.05,21.57Z"/><path class="cls-4" d="M24,38a3,3,0,0,1-2-.77V42H17.23A3,3,0,1,1,12,44a3,3,0,0,1,.77-2H10a2,2,0,0,1-2-2V28h4.77A3,3,0,0,0,12,30a3,3,0,1,0,5.23-2H22v4.77A3,3,0,1,1,24,38Z"/><path class="cls-5" d="M45,8V20H40.23a3,3,0,0,0-2.73-5h-.07a3,3,0,0,0-2.36,2.3,3,3,0,0,0,.7,2.65H31V15.23A3,3,0,1,1,29,10a3,3,0,0,1,2,.77V6h4.77a3,3,0,0,1-.7-2.64,2.53,2.53,0,0,1,.18-.55,2.45,2.45,0,0,1,.36-.63,3.38,3.38,0,0,1,.31-.35,2.92,2.92,0,0,1,1-.64,1.88,1.88,0,0,1,.46-.14h0a3,3,0,0,1,2.69.83A3,3,0,0,1,40.23,6H43A2,2,0,0,1,45,8Z"/><path class="cls-6" d="M17.05,21.59A3,3,0,0,0,22,23.23V26h0A11,11,0,0,1,11,15V14H22v4.77A3,3,0,0,0,20,18,3,3,0,0,0,17.05,21.59Z"/><path class="cls-7" d="M24,38a3,3,0,0,1-2-.77V40h0A11,11,0,0,1,11,29V28h1.77A3,3,0,0,0,12,30a3,3,0,1,0,5.23-2H22v4.77A3,3,0,1,1,24,38Z"/><path class="cls-8" d="M45,8V18a11,11,0,0,1-4.11-.79A3,3,0,0,0,37.5,15a3.45,3.45,0,0,1-.28-.26A11,11,0,0,1,34,7V6h1.77a3,3,0,0,1-.7-2.64,2.53,2.53,0,0,1,.18-.55,2.45,2.45,0,0,1,.36-.63,3.38,3.38,0,0,1,.31-.35,2.75,2.75,0,0,1,1-.64,1.88,1.88,0,0,1,.46-.14h0a3,3,0,0,1,2.69.83A3,3,0,0,1,40.23,6H43A2,2,0,0,1,45,8Z"/></g></svg>